<?xml version="1.0" encoding="UTF-8" standalone="no"?>
<!-- Created with Inkscape (http://www.inkscape.org/) -->

<svg
   xmlns:dc="http://purl.org/dc/elements/1.1/"
   xmlns:cc="http://creativecommons.org/ns#"
   xmlns:rdf="http://www.w3.org/1999/02/22-rdf-syntax-ns#"
   xmlns:svg="http://www.w3.org/2000/svg"
   xmlns="http://www.w3.org/2000/svg"
   xmlns:sodipodi="http://sodipodi.sourceforge.net/DTD/sodipodi-0.dtd"
   xmlns:inkscape="http://www.inkscape.org/namespaces/inkscape"
   width="152.375"
   height="143.09375"
   id="svg2"
   version="1.1"
   inkscape:version="0.48.4 r9939"
   sodipodi:docname="blackTokenTie.svg">
  <defs
     id="defs4">
    <marker
       inkscape:stockid="StopL"
       orient="auto"
       refY="0"
       refX="0"
       id="StopL"
       style="overflow:visible">
      <path
         id="path3954"
         d="M 0,5.65 0,-5.65"
         style="fill:none;stroke:#000000;stroke-width:1pt"
         transform="scale(0.8,0.8)"
         inkscape:connector-curvature="0" />
    </marker>
    <marker
       style="overflow:visible"
       id="DistanceStart"
       refX="0"
       refY="0"
       orient="auto"
       inkscape:stockid="DistanceStart">
      <g
         id="g2300">
        <path
           style="fill:none;stroke:#ffffff;stroke-width:1.14999998;stroke-linecap:square"
           d="M 0,0 2,0"
           id="path2306"
           inkscape:connector-curvature="0" />
        <path
           style="fill:#000000;fill-rule:evenodd;stroke:none"
           d="M 0,0 13,4 9,0 13,-4 0,0 z"
           id="path2302"
           inkscape:connector-curvature="0" />
        <path
           style="fill:none;stroke:#000000;stroke-width:1;stroke-linecap:square"
           d="M 0,-4 0,40"
           id="path2304"
           inkscape:connector-curvature="0" />
      </g>
    </marker>
    <marker
       inkscape:stockid="Arrow2Send"
       orient="auto"
       refY="0"
       refX="0"
       id="Arrow2Send"
       style="overflow:visible">
      <path
         id="path3818"
         style="fill-rule:evenodd;stroke-width:0.625;stroke-linejoin:round"
         d="M 8.7185878,4.0337352 -2.2072895,0.01601326 8.7185884,-4.0017078 c -1.7454984,2.3720609 -1.7354408,5.6174519 -6e-7,8.035443 z"
         transform="matrix(-0.3,0,0,-0.3,0.69,0)"
         inkscape:connector-curvature="0" />
    </marker>
  </defs>
  <sodipodi:namedview
     id="base"
     pagecolor="#ffffff"
     bordercolor="#666666"
     borderopacity="1.0"
     inkscape:pageopacity="0.0"
     inkscape:pageshadow="2"
     inkscape:zoom="1.4"
     inkscape:cx="62.784477"
     inkscape:cy="65.65235"
     inkscape:document-units="px"
     inkscape:current-layer="layer1"
     showgrid="false"
     inkscape:window-width="1366"
     inkscape:window-height="746"
     inkscape:window-x="-8"
     inkscape:window-y="-8"
     inkscape:window-maximized="1"
     fit-margin-top="0"
     fit-margin-left="0"
     fit-margin-right="0"
     fit-margin-bottom="0" />
  <metadata
     id="metadata7">
    <rdf:RDF>
      <cc:Work
         rdf:about="">
        <dc:format>image/svg+xml</dc:format>
        <dc:type
           rdf:resource="http://purl.org/dc/dcmitype/StillImage" />
        <dc:title></dc:title>
      </cc:Work>
    </rdf:RDF>
  </metadata>
  <g
     inkscape:label="Ebene 1"
     inkscape:groupmode="layer"
     id="layer1"
     transform="translate(-112.73661,-460.82589)">
    <path
       sodipodi:type="arc"
       style="fill:#ffe111;fill-opacity:1;fill-rule:nonzero;stroke:#000000;stroke-width:3.09999989999999980;stroke-miterlimit:4;stroke-opacity:1;stroke-dasharray:none"
       id="path2985"
       sodipodi:cx="296.78571"
       sodipodi:cy="539.50507"
       sodipodi:rx="74.64286"
       sodipodi:ry="70"
       d="m 371.42857,539.50507 c 0,38.65993 -33.41875,70 -74.64286,70 -41.22412,0 -74.64286,-31.34007 -74.64286,-70 0,-38.65994 33.41874,-70 74.64286,-70 41.22411,0 74.64286,31.34006 74.64286,70 z"
       transform="translate(-107.85714,-7.1428572)" />
    <path
       style="fill:none;stroke:#000000;stroke-width:2.5999999;stroke-linecap:butt;stroke-linejoin:miter;stroke-miterlimit:4;stroke-opacity:1;stroke-dasharray:none;marker-start:url(#StopL);marker-mid:none;marker-end:url(#StopL)"
       d="m 149.68311,565.69332 c 0,0 11.60513,-24.43882 40.23024,-24.9777 22.51338,-0.42382 37.651,27.14594 37.651,27.14594"
       id="path3779"
       inkscape:connector-curvature="0"
       sodipodi:nodetypes="csc" />
    <path
       sodipodi:type="arc"
       style="fill:#000000;fill-opacity:1;fill-rule:nonzero;stroke:none"
       id="path5186"
       sodipodi:cx="162.5"
       sodipodi:cy="504.14789"
       sodipodi:rx="5.3571429"
       sodipodi:ry="11.071428"
       d="m 167.85714,504.14789 c 0,6.11458 -2.39847,11.07143 -5.35714,11.07143 -2.95867,0 -5.35714,-4.95685 -5.35714,-11.07143 0,-6.11458 2.39847,-11.07143 5.35714,-11.07143 2.95867,0 5.35714,4.95685 5.35714,11.07143 z"
       transform="translate(3.2142856,1.7857143)" />
    <path
       transform="translate(45.714286,1.4285793)"
       sodipodi:type="arc"
       style="fill:#000000;fill-opacity:1;fill-rule:nonzero;stroke:none"
       id="path5186-8"
       sodipodi:cx="162.5"
       sodipodi:cy="504.14789"
       sodipodi:rx="5.3571429"
       sodipodi:ry="11.071428"
       d="m 167.85714,504.14789 c 0,6.11458 -2.39847,11.07143 -5.35714,11.07143 -2.95867,0 -5.35714,-4.95685 -5.35714,-11.07143 0,-6.11458 2.39847,-11.07143 5.35714,-11.07143 2.95867,0 5.35714,4.95685 5.35714,11.07143 z" />
  </g>
</svg>
