<?xml version="1.0" encoding="UTF-8" standalone="no"?>
<!-- Created with Inkscape (http://www.inkscape.org/) -->

<svg
   xmlns:osb="http://www.openswatchbook.org/uri/2009/osb"
   xmlns:dc="http://purl.org/dc/elements/1.1/"
   xmlns:cc="http://creativecommons.org/ns#"
   xmlns:rdf="http://www.w3.org/1999/02/22-rdf-syntax-ns#"
   xmlns:svg="http://www.w3.org/2000/svg"
   xmlns="http://www.w3.org/2000/svg"
   xmlns:sodipodi="http://sodipodi.sourceforge.net/DTD/sodipodi-0.dtd"
   xmlns:inkscape="http://www.inkscape.org/namespaces/inkscape"
   width="87.472672"
   height="83.191422"
   id="svg2"
   version="1.1"
   inkscape:version="0.48.4 r9939"
   sodipodi:docname="boardTile.svg">
  <defs
     id="defs4">
    <linearGradient
       id="linearGradient5406"
       osb:paint="solid">
      <stop
         style="stop-color:#4d4df0;stop-opacity:1;"
         offset="0"
         id="stop5408" />
    </linearGradient>
    <marker
       inkscape:stockid="Arrow2Mstart"
       orient="auto"
       refY="0"
       refX="0"
       id="Arrow2Mstart"
       style="overflow:visible">
      <path
         id="path3851"
         style="fill-rule:evenodd;stroke-width:0.625;stroke-linejoin:round"
         d="M 8.7185878,4.0337352 -2.2072895,0.01601326 8.7185884,-4.0017078 c -1.7454984,2.3720609 -1.7354408,5.6174519 -6e-7,8.035443 z"
         transform="scale(0.6,0.6)"
         inkscape:connector-curvature="0" />
    </marker>
    <marker
       inkscape:stockid="Arrow1Lend"
       orient="auto"
       refY="0"
       refX="0"
       id="Arrow1Lend"
       style="overflow:visible">
      <path
         id="path3830"
         d="M 0,0 5,-5 -12.5,0 5,5 0,0 z"
         style="fill-rule:evenodd;stroke:#000000;stroke-width:1pt"
         transform="matrix(-0.8,0,0,-0.8,-10,0)"
         inkscape:connector-curvature="0" />
    </marker>
    <marker
       inkscape:stockid="Arrow1Lstart"
       orient="auto"
       refY="0"
       refX="0"
       id="Arrow1Lstart"
       style="overflow:visible">
      <path
         id="path3827"
         d="M 0,0 5,-5 -12.5,0 5,5 0,0 z"
         style="fill-rule:evenodd;stroke:#000000;stroke-width:1pt"
         transform="matrix(0.8,0,0,0.8,10,0)"
         inkscape:connector-curvature="0" />
    </marker>
  </defs>
  <sodipodi:namedview
     id="base"
     pagecolor="#ffffff"
     bordercolor="#666666"
     borderopacity="1.0"
     inkscape:pageopacity="0.0"
     inkscape:pageshadow="2"
     inkscape:zoom="2.8"
     inkscape:cx="1.4528718"
     inkscape:cy="50.40581"
     inkscape:document-units="px"
     inkscape:current-layer="layer1"
     showgrid="false"
     inkscape:window-width="1366"
     inkscape:window-height="746"
     inkscape:window-x="-8"
     inkscape:window-y="-8"
     inkscape:window-maximized="1"
     fit-margin-top="0"
     fit-margin-left="0"
     fit-margin-right="0"
     fit-margin-bottom="0" />
  <metadata
     id="metadata7">
    <rdf:RDF>
      <cc:Work
         rdf:about="">
        <dc:format>image/svg+xml</dc:format>
        <dc:type
           rdf:resource="http://purl.org/dc/dcmitype/StillImage" />
        <dc:title />
      </cc:Work>
    </rdf:RDF>
  </metadata>
  <g
     inkscape:label="Ebene 1"
     inkscape:groupmode="layer"
     id="layer1"
     transform="translate(-237.64669,-238.32248)">
    <path
       style="fill:#1733ba;fill-opacity:1;stroke:#ff6a30;stroke-width:2;stroke-linecap:round;stroke-linejoin:round;stroke-miterlimit:4;stroke-opacity:1;stroke-dasharray:none;stroke-dashoffset:0"
       d="m 0.34375,0.4375 0,82.6875 86.96875,0 0,-82.6875 -86.96875,0 z m 43.0625,5 C 64.314173,5.4375 81.25,21.902561 81.25,42.21875 81.25,62.534938 64.314173,79 43.40625,79 22.498327,79 5.53125,62.534938 5.53125,42.21875 5.53125,21.902561 22.498327,5.4375 43.40625,5.4375 z"
       transform="translate(237.5549,238.13694)"
       id="path3798"
       inkscape:connector-curvature="0" />
    <path
       sodipodi:type="arc"
       style="fill:none;stroke:#ff6a30;stroke-width:1.10000002;stroke-linecap:butt;stroke-linejoin:miter;stroke-miterlimit:4;stroke-opacity:1;stroke-dasharray:none;stroke-dashoffset:0"
       id="path5445"
       sodipodi:cx="44.82552"
       sodipodi:cy="42.152592"
       sodipodi:rx="37.754452"
       sodipodi:ry="36.239223"
       d="m 82.579971,42.152592 c 0,20.01437 -16.903243,36.239223 -37.754451,36.239223 -20.851208,0 -37.7544522,-16.224853 -37.7544522,-36.239223 0,-20.014371 16.9032442,-36.2392238 37.7544522,-36.2392238 20.851208,0 37.754451,16.2248528 37.754451,36.2392238 z"
       transform="matrix(0.99992517,0,0,1.010375,236.29555,237.57333)" />
    <path
       style="fill:#ff6a30;fill-opacity:1;stroke:none"
       d="M 0.35714286,12.580357 11.964286,0.25892853 l -11.78571457,0 z"
       id="path5447"
       inkscape:connector-curvature="0"
       transform="translate(237.5549,238.13694)" />
    <path
       style="fill:#ff6a30;fill-opacity:1;stroke:none"
       d="m 312.46561,238.75301 12.32143,11.60715 0,-11.78573 z"
       id="path5447-8"
       inkscape:connector-curvature="0" />
    <path
       style="fill:#ff6a30;fill-opacity:1;stroke:none"
       d="m 238.09061,308.84229 11.60715,12.32143 -11.78572,0 z"
       id="path5447-7"
       inkscape:connector-curvature="0" />
    <path
       style="fill:#ff6a30;fill-opacity:1;stroke:none"
       d="m 324.69775,309.02086 -11.60714,12.32144 11.78572,0 z"
       id="path5447-71"
       inkscape:connector-curvature="0" />
  </g>
</svg>
