<?xml version="1.0" encoding="UTF-8" standalone="no"?>
<!-- Created with Inkscape (http://www.inkscape.org/) -->

<svg
   xmlns:dc="http://purl.org/dc/elements/1.1/"
   xmlns:cc="http://creativecommons.org/ns#"
   xmlns:rdf="http://www.w3.org/1999/02/22-rdf-syntax-ns#"
   xmlns:svg="http://www.w3.org/2000/svg"
   xmlns="http://www.w3.org/2000/svg"
   xmlns:sodipodi="http://sodipodi.sourceforge.net/DTD/sodipodi-0.dtd"
   xmlns:inkscape="http://www.inkscape.org/namespaces/inkscape"
   width="451.625"
   height="532.65637"
   id="svg2"
   version="1.1"
   inkscape:version="0.48.4 r9939"
   sodipodi:docname="fullscreen.svg">
  <defs
     id="defs4" />
  <sodipodi:namedview
     id="base"
     pagecolor="#000000"
     bordercolor="#666666"
     borderopacity="1.0"
     inkscape:pageopacity="0"
     inkscape:pageshadow="2"
     inkscape:zoom="0.35355339"
     inkscape:cx="-385.98138"
     inkscape:cy="228.24169"
     inkscape:document-units="px"
     inkscape:current-layer="layer1"
     showgrid="false"
     inkscape:snap-bbox="false"
     inkscape:window-width="1366"
     inkscape:window-height="746"
     inkscape:window-x="-8"
     inkscape:window-y="-8"
     inkscape:window-maximized="1"
     fit-margin-top="0"
     fit-margin-left="0"
     fit-margin-right="0"
     fit-margin-bottom="0" />
  <metadata
     id="metadata7">
    <rdf:RDF>
      <cc:Work
         rdf:about="">
        <dc:format>image/svg+xml</dc:format>
        <dc:type
           rdf:resource="http://purl.org/dc/dcmitype/StillImage" />
        <dc:title></dc:title>
      </cc:Work>
    </rdf:RDF>
  </metadata>
  <g
     inkscape:label="Ebene 1"
     inkscape:groupmode="layer"
     id="layer1"
     transform="translate(-130.6875,-67.125)">
    <path
       style="fill:#ffffff;fill-opacity:1;stroke:#ffffff;stroke-width:12.50000000000000000;stroke-linecap:butt;stroke-linejoin:miter;stroke-miterlimit:4;stroke-opacity:1;stroke-dasharray:none"
       d="m 245.25001,145.36216 31.78571,-31.78572 -100,0 0,100 31.78571,-31.78571 90.71429,90.71429 36.42857,-36.42858 z"
       id="path2989"
       inkscape:connector-curvature="0"
       sodipodi:nodetypes="cccccccc" />
    <path
       style="fill:#ffffff;fill-opacity:1;stroke:#ffffff;stroke-width:12.50000000000000000;stroke-linecap:butt;stroke-linejoin:miter;stroke-miterlimit:4;stroke-opacity:1;stroke-dasharray:none"
       d="m 504.17857,181.79073 31.78573,31.78571 0,-100 -100.00001,0 31.78571,31.78571 -90.71429,90.71429 36.42858,36.42857 z"
       id="path2989-4"
       inkscape:connector-curvature="0"
       sodipodi:nodetypes="cccccccc" />
    <path
       style="fill:#ffffff;fill-opacity:1;stroke:#ffffff;stroke-width:12.50000000000000000;stroke-linecap:butt;stroke-linejoin:miter;stroke-miterlimit:4;stroke-opacity:1;stroke-dasharray:none"
       d="m 467.75,440.7193 -31.78571,31.78573 100,0 0,-100.00001 -31.78571,31.78571 -90.71429,-90.71429 -36.42857,36.42858 z"
       id="path2989-4-0"
       inkscape:connector-curvature="0"
       sodipodi:nodetypes="cccccccc" />
    <path
       style="fill:#ffffff;fill-opacity:1;stroke:#ffffff;stroke-width:12.50000000000000000;stroke-linecap:butt;stroke-linejoin:miter;stroke-miterlimit:4;stroke-opacity:1;stroke-dasharray:none"
       d="m 208.82144,404.29073 -31.78573,-31.78571 0,100 100.00001,0 -31.78571,-31.78571 90.71429,-90.71429 -36.42858,-36.42857 z"
       id="path2989-4-0-9"
       inkscape:connector-curvature="0"
       sodipodi:nodetypes="cccccccc" />
    <path
       style="fill:#ffffff;fill-opacity:1;stroke:#ffffff;stroke-width:0;stroke-linecap:butt;stroke-linejoin:miter;stroke-miterlimit:4;stroke-opacity:1;stroke-dasharray:none"
       d="m 582.25,292.86218 c 0,0 0,-136.03457 0,-200.875 0,-6.601899 -0.13046,-13.018356 -6,-18.875001 -5.86955,-5.856659 -12.2786,-5.94531 -18.875,-5.94531 -131.97064,0 -267.5337,0.10938 -401.75,0.10938 -6.60744,0 -13.01834,0.18514 -18.875,6.05469 -5.84377,5.856631 -6,12.235783 -6,18.820311 0,103.34782 0,268.05923 0,401.64063 0,6.58453 0.1498,12.97011 6,18.82031 5.86309,5.86309 12.2731,6 18.875,6 103.44667,0 268.78591,0 401.75,0 6.6019,0 13.01191,-0.13691 18.875,-6 5.86309,-5.86309 6,-12.2731 6,-18.875 0,-66.88932 0,-200.875 0,-200.875 l -20,0 0,205.75 -411.5,0 0,-411.281251 411.5,-0.21875 0,205.750001 z"
       id="path3917-4"
       inkscape:connector-curvature="0"
       sodipodi:nodetypes="csssssssssssscccccccc" />
    <path
       style="fill:none;stroke:#ffffff;stroke-width:14;stroke-linecap:round;stroke-linejoin:miter;stroke-miterlimit:4;stroke-opacity:1;stroke-dasharray:none;stroke-dashoffset:0"
       d="m 317.19805,532.90216 c 0,0 -2.63675,11.29429 -7.48528,15.67767 -15.43077,13.9504 -29.29225,18.13156 -49.68986,22.2132 -19.20527,3.84304 -80.68987,9.82843 -80.68987,9.82843 0,0 36.41827,13.58638 183.09472,12.02082 144.21325,-1.53927 180.26629,-12.02082 180.26629,-12.02082 0,0 -61.4846,-5.98539 -80.68987,-9.82843 -20.39761,-4.08164 -34.25909,-8.2628 -49.68986,-22.2132 -4.84853,-4.38338 -7.48528,-15.67767 -7.48528,-15.67767"
       id="path3966"
       inkscape:connector-curvature="0"
       sodipodi:nodetypes="csscscssc" />
  </g>
</svg>
