<?xml version="1.0" encoding="UTF-8" standalone="no"?>
<!-- Created with Inkscape (http://www.inkscape.org/) -->

<svg
   xmlns:dc="http://purl.org/dc/elements/1.1/"
   xmlns:cc="http://creativecommons.org/ns#"
   xmlns:rdf="http://www.w3.org/1999/02/22-rdf-syntax-ns#"
   xmlns:svg="http://www.w3.org/2000/svg"
   xmlns="http://www.w3.org/2000/svg"
   xmlns:sodipodi="http://sodipodi.sourceforge.net/DTD/sodipodi-0.dtd"
   xmlns:inkscape="http://www.inkscape.org/namespaces/inkscape"
   width="93.46875"
   height="89.375"
   id="svg2"
   version="1.1"
   inkscape:version="0.48.4 r9939"
   sodipodi:docname="whiteToken.svg">
  <defs
     id="defs4">
    <marker
       inkscape:stockid="Arrow2Mstart"
       orient="auto"
       refY="0"
       refX="0"
       id="Arrow2Mstart"
       style="overflow:visible">
      <path
         id="path3851"
         style="fill-rule:evenodd;stroke-width:0.625;stroke-linejoin:round"
         d="M 8.7185878,4.0337352 -2.2072895,0.01601326 8.7185884,-4.0017078 c -1.7454984,2.3720609 -1.7354408,5.6174519 -6e-7,8.035443 z"
         transform="scale(0.6,0.6)"
         inkscape:connector-curvature="0" />
    </marker>
    <marker
       inkscape:stockid="Arrow1Lend"
       orient="auto"
       refY="0"
       refX="0"
       id="Arrow1Lend"
       style="overflow:visible">
      <path
         id="path3830"
         d="M 0,0 5,-5 -12.5,0 5,5 0,0 z"
         style="fill-rule:evenodd;stroke:#000000;stroke-width:1pt"
         transform="matrix(-0.8,0,0,-0.8,-10,0)"
         inkscape:connector-curvature="0" />
    </marker>
    <marker
       inkscape:stockid="Arrow1Lstart"
       orient="auto"
       refY="0"
       refX="0"
       id="Arrow1Lstart"
       style="overflow:visible">
      <path
         id="path3827"
         d="M 0,0 5,-5 -12.5,0 5,5 0,0 z"
         style="fill-rule:evenodd;stroke:#000000;stroke-width:1pt"
         transform="matrix(0.8,0,0,0.8,10,0)"
         inkscape:connector-curvature="0" />
    </marker>
  </defs>
  <sodipodi:namedview
     id="base"
     pagecolor="#ffffff"
     bordercolor="#666666"
     borderopacity="1.0"
     inkscape:pageopacity="0.0"
     inkscape:pageshadow="2"
     inkscape:zoom="3.959798"
     inkscape:cx="35.569511"
     inkscape:cy="54.387535"
     inkscape:document-units="px"
     inkscape:current-layer="layer1"
     showgrid="false"
     inkscape:window-width="1280"
     inkscape:window-height="778"
     inkscape:window-x="1358"
     inkscape:window-y="62"
     inkscape:window-maximized="1"
     fit-margin-top="0"
     fit-margin-left="0"
     fit-margin-right="0"
     fit-margin-bottom="0" />
  <metadata
     id="metadata7">
    <rdf:RDF>
      <cc:Work
         rdf:about="">
        <dc:format>image/svg+xml</dc:format>
        <dc:type
           rdf:resource="http://purl.org/dc/dcmitype/StillImage" />
        <dc:title></dc:title>
      </cc:Work>
    </rdf:RDF>
  </metadata>
  <g
     inkscape:label="Ebene 1"
     inkscape:groupmode="layer"
     id="layer1"
     transform="translate(-233.59061,-234.91819)">
    <path
       sodipodi:type="spiral"
       style="fill:none;stroke:#000000;stroke-width:3.24191468;stroke-linecap:round;stroke-linejoin:miter;stroke-miterlimit:4;stroke-opacity:1;stroke-dasharray:3.24191468,6.48382937;stroke-dashoffset:0;marker-start:none;marker-mid:none"
       id="path3757"
       sodipodi:cx="312.64221"
       sodipodi:cy="301.81885"
       sodipodi:expansion="1"
       sodipodi:revolution="3"
       sodipodi:radius="39.285713"
       sodipodi:argument="-19.634954"
       sodipodi:t0="0"
       d="m 312.64221,301.81885 c 1.39281,-1.39281 2.56464,1.19031 2.31494,2.31493 -0.67668,3.04765 -4.58034,3.53758 -6.9448,2.31494 -4.22947,-2.18704 -4.72495,-7.86629 -2.31494,-11.57467 3.5368,-5.4422 11.19681,-5.94751 16.20453,-2.31494 6.67451,4.84165 7.18507,14.54315 2.31494,20.8344 -6.12856,7.91689 -17.89704,8.43038 -25.46426,2.31494 -9.16492,-7.40662 -9.68019,-21.25518 -2.31494,-30.09413 8.67968,-10.41639 24.61596,-10.93281 34.72399,-2.31494 11.67012,9.94966 12.18731,27.97851 2.31495,39.35386 -11.21762,12.92538 -31.34231,13.44313 -43.98373,2.31494 -14.18175,-12.48414 -14.69991,-34.707 -2.31495,-48.61358 13.74965,-15.43894 38.07239,-15.95741 53.24346,-2.31496"
       transform="matrix(0.98837835,0,0,0.96371046,-27.087778,-6.8429243)" />
  </g>
</svg>
